<svg aria-hidden="true" style="position: absolute; width: 0; height: 0; overflow: hidden;" version="1.1" xmlns="http://www.w3.org/2000/svg" xmlns:xlink="http://www.w3.org/1999/xlink">
<defs>
<symbol id="icon-Logo" viewBox="0 0 128 32">
<path fill="#f4e041" style="fill: var(--color3, #f4e041)" d="M35.42 27.82c0.17 1.223-0.294 2.391-1.132 3.124-0.544 0.482-1.264 0.777-2.052 0.777-0.076 0-0.151-0.003-0.226-0.008l0.010 0.001c-0.011 0-0.022 0-0.033-0.002-0.88-0.066-1.658-0.457-2.224-1.051l-0.001-0.001c-0.932-0.99-0.905-2.218-0.894-2.475 0-0.123 0.006-0.244 0.021-0.363h-10.114c0.014 0.119 0.020 0.24 0.020 0.363 0.012 0.257 0.038 1.486-0.892 2.474-0.567 0.596-1.345 0.987-2.214 1.053l-0.012 0.001c-0.012 0.002-0.023 0.002-0.034 0.002-0.062 0.004-0.134 0.007-0.207 0.007-0.573 0-1.11-0.153-1.572-0.421l0.015 0.008c-0.191-0.111-0.356-0.23-0.508-0.364l0.004 0.003v-0.002c-0.719-0.646-1.169-1.578-1.169-2.616 0-0.179 0.013-0.355 0.039-0.527l-0.002 0.019h-3.643l0.074-0.271 1.36-5.007 3.778-0.169c0 0 0.001 0 0.002 0 0.155 0 0.281-0.126 0.281-0.281s-0.126-0.281-0.281-0.281c-0.009 0-0.018 0-0.027 0.001l0.001-0-3.598 0.16 0.495-1.824 0.287 0.025 2.82 0.231c0.154-0.001 0.279-0.126 0.279-0.281 0-0.146-0.111-0.266-0.253-0.279l-0.001-0-2.981-0.247 0.501-1.846 0.266 0.102 2.652 1.014c0.030 0.012 0.065 0.019 0.102 0.019 0.119 0 0.221-0.073 0.263-0.177l0.001-0.002c0.012-0.030 0.019-0.065 0.019-0.101 0-0.119-0.074-0.22-0.178-0.261l-0.002-0.001-2.974-1.138 4.409-16.22 3.179 9.698c0.748-0.377 2.492-1.147 4.751-1.113h0.020c2.257-0.034 4.001 0.736 4.75 1.111l3.18-9.697 4.407 16.222-0.266 0.101-2.708 1.036c-0.105 0.042-0.179 0.143-0.179 0.262 0 0.155 0.126 0.281 0.281 0.281 0.037 0 0.072-0.007 0.104-0.020l-0.002 0.001 2.918-1.116 0.502 1.846-0.288 0.025-2.693 0.222c-0.146 0.013-0.259 0.134-0.259 0.282 0 0.008 0 0.015 0.001 0.023l-0-0.001c0.014 0.145 0.135 0.257 0.282 0.257h0.025l3.083-0.256 0.494 1.824-0.295-0.014-3.302-0.146c-0.008-0.001-0.017-0.001-0.026-0.001-0.155 0-0.281 0.126-0.281 0.281s0.126 0.281 0.281 0.281c0.001 0 0.001 0 0.002 0h-0l3.778 0.167 1.434 5.279h-3.643z"></path>
<path fill="#000" style="fill: var(--color4, #000)" opacity="0.87" d="M39.431 28.101l-0.074-0.271-0.076-0.281-1.356-4.994-0.295-0.012-0.298-0.014 1.361 5.009h-3.599l0.044 0.32c0.022 0.141 0.034 0.304 0.034 0.47 0 0.803-0.291 1.538-0.773 2.105l0.004-0.005c-0.211 0.247-0.458 0.454-0.735 0.617l-0.014 0.007c-0.409 0.243-0.902 0.387-1.428 0.387-0.073 0-0.145-0.003-0.216-0.008l0.010 0.001c-0.812-0.055-1.531-0.415-2.052-0.965l-0.001-0.001c-0.791-0.841-0.834-1.868-0.816-2.283 0-0.123 0.005-0.23 0.017-0.332l0.037-0.313h-10.751l0.037 0.314c0.011 0.101 0.018 0.209 0.018 0.342 0.017 0.404-0.027 1.431-0.817 2.272-0.568 0.6-1.37 0.973-2.259 0.973-0.029 0-0.057-0-0.086-0.001l0.004 0c-0.497-0.014-0.959-0.155-1.357-0.39l0.013 0.007h-0.001c-0.147-0.083-0.274-0.172-0.391-0.273l0.003 0.003c-0.133-0.11-0.252-0.226-0.36-0.352l-0.003-0.004c-0.478-0.563-0.768-1.297-0.768-2.1 0-0.167 0.013-0.331 0.037-0.491l-0.002 0.018 0.043-0.319h-3.598l1.361-5.009-0.298 0.012-0.295 0.014-1.508 5.546h3.7c-0.092 1.649 0.865 3.175 2.367 3.705 1.307 0.464 2.839 0.079 3.813-0.956 0.935-0.997 0.988-2.206 0.969-2.666l-0.001-0.082h9.509v0.070c-0.021 0.473 0.032 1.681 0.969 2.678 0.699 0.743 1.685 1.151 2.67 1.151 0.386 0 0.773-0.064 1.143-0.194 1.502-0.529 2.459-2.055 2.366-3.705h3.7zM10.683 20.15l-0.288-0.025-0.505 1.861 0.298-0.012 0.295-0.014 0.486-1.787-0.287-0.023zM31.797 0l-0.297 0.898-3.079 9.391c-1.078-0.502-2.676-1.031-4.58-0.997h-0.016c-0.033-0-0.073-0.001-0.113-0.001-1.624 0-3.162 0.368-4.535 1.025l0.063-0.027-0.427-1.301c-0.884-2.695-1.767-5.392-2.654-8.089l-0.295-0.9-4.647 17.105 0.266 0.103 0.266 0.101 4.167-15.338c0.788 2.398 1.573 4.794 2.357 7.19l0.631 1.92 0.295-0.148c1.013-0.512 2.644-1.118 4.622-1.082h0.025c1.982-0.033 3.601 0.57 4.615 1.081l0.295 0.149 0.63-1.92c0.784-2.396 1.57-4.793 2.358-7.19l4.167 15.337 0.266-0.101 0.266-0.102-4.647-17.105zM11.068 17.649l-0.523 1.926 0.288 0.023 0.287 0.025 0.48-1.769-0.532-0.204zM36.593 17.652l-0.266 0.101-0.266 0.102 0.48 1.767 0.288-0.023 0.286-0.022-0.522-1.925zM37.265 20.126l-0.574 0.049 0.486 1.785 0.295 0.015 0.297 0.012-0.505-1.86z"></path>
<path fill="#000" style="fill: var(--color4, #000)" opacity="0.87" d="M26.076 18.4c-0.001 0-0.003 0-0.005 0-0.33 0-0.597-0.267-0.598-0.597v-3.615c0-0.33 0.271-0.597 0.603-0.597s0.602 0.267 0.602 0.597v3.615c-0.002 0.329-0.27 0.596-0.599 0.596-0.001 0-0.003 0-0.004 0h0zM21.94 17.769c-0.020 0.002-0.043 0.004-0.067 0.004-0.309 0-0.563-0.232-0.598-0.531l-0-0.003-0.292-2.729c-0.002-0.018-0.003-0.039-0.003-0.061 0-0.309 0.235-0.564 0.536-0.595l0.003-0c0.019-0.002 0.042-0.003 0.064-0.003 0.308 0 0.562 0.231 0.598 0.53l0 0.003 0.294 2.729c0.002 0.019 0.003 0.040 0.003 0.062 0 0.309-0.235 0.564-0.536 0.595l-0.003 0zM14.615 18.709c-0.043 0.106-0.144 0.179-0.263 0.179-0.037 0-0.072-0.007-0.104-0.020l0.002 0.001-7.036-2.694c-0.107-0.041-0.183-0.143-0.183-0.262 0-0.036 0.007-0.071 0.020-0.103l-0.001 0.002c0.043-0.106 0.145-0.179 0.264-0.179 0.037 0 0.072 0.007 0.105 0.020l-0.002-0.001 7.038 2.694c0.106 0.041 0.18 0.143 0.18 0.261 0 0.037-0.007 0.072-0.020 0.104l0.001-0.002zM14.068 20.148c-0.012 0.145-0.133 0.258-0.281 0.258-0 0-0.001 0-0.001 0h-0.025l-7.518-0.624c-0.144-0.013-0.256-0.133-0.256-0.279 0-0.155 0.125-0.28 0.28-0.28 0.008 0 0.017 0 0.025 0.001l-0.001-0 7.519 0.62c0.156 0.012 0.271 0.15 0.258 0.304zM14.079 22.082c0 0.003 0 0.007 0 0.011 0 0.152-0.12 0.275-0.271 0.28h-0.001l-7.55 0.336c-0.002 0-0.004 0-0.006 0-0.155 0-0.281-0.126-0.281-0.281 0-0.153 0.122-0.277 0.274-0.281h0l7.536-0.335c0.005-0 0.011-0 0.016-0 0.151 0 0.273 0.119 0.279 0.268l0 0.001zM40.444 16.175l-7.036 2.694c-0.030 0.012-0.065 0.019-0.102 0.019-0.119 0-0.221-0.073-0.264-0.177l-0.001-0.002c-0.012-0.030-0.019-0.064-0.019-0.101 0-0.119 0.074-0.221 0.179-0.262l0.002-0.001 7.038-2.693c0.030-0.012 0.065-0.019 0.102-0.019 0.119 0 0.221 0.073 0.264 0.177l0.001 0.002c0.011 0.029 0.018 0.063 0.018 0.098 0 0.12-0.074 0.222-0.18 0.263l-0.002 0.001zM41.67 19.479c0 0.006 0.001 0.013 0.001 0.021 0 0.148-0.114 0.27-0.259 0.282l-0.001 0-7.543 0.624c-0.147-0-0.268-0.112-0.282-0.256l-0-0.001c-0-0.006-0.001-0.013-0.001-0.021 0-0.148 0.114-0.269 0.258-0.282l0.001-0 7.52-0.622c0.008-0.001 0.017-0.001 0.027-0.001 0.146 0 0.267 0.112 0.279 0.255l0 0.001zM41.68 22.442c-0.008 0.15-0.132 0.268-0.283 0.268-0 0-0 0-0 0h-0.012l-7.538-0.336c-0.151-0.006-0.271-0.13-0.271-0.282 0-0.004 0-0.007 0-0.011v0c0.007-0.15 0.13-0.269 0.28-0.269 0.006 0 0.011 0 0.017 0l-0.001-0 7.537 0.334c0.151 0.005 0.271 0.129 0.271 0.28 0 0.005-0 0.010-0 0.014l0-0.001z"></path>
<path fill="#fff" style="fill: var(--color5, #fff)" d="M31.902 29.022c0.155 0.415 0.244 0.894 0.244 1.394 0 0.362-0.047 0.713-0.135 1.047l0.006-0.029-0.114-2.412z"></path>
<path fill="#000" style="fill: var(--color4, #000)" opacity="0.87" d="M32.018 31.713c-0.001 0-0.002 0-0.004 0-0.154 0-0.279-0.125-0.279-0.279 0-0.024 0.003-0.048 0.009-0.071l-0 0.002c0.074-0.284 0.117-0.61 0.117-0.945 0-0.469-0.083-0.918-0.235-1.334l0.009 0.027c-0.010-0.027-0.015-0.058-0.015-0.091 0-0.123 0.079-0.227 0.189-0.265l0.002-0.001c0.028-0.010 0.060-0.016 0.093-0.016 0.123 0 0.228 0.079 0.267 0.189l0.001 0.002c0.163 0.443 0.257 0.955 0.257 1.488 0 0.384-0.049 0.757-0.14 1.112l0.007-0.031c-0.034 0.123-0.144 0.212-0.276 0.212v0z"></path>
<path fill="#fff" style="fill: var(--color5, #fff)" d="M33.75 28.911c0.172 0.276 0.324 0.612 0.37 0.997 0.010 0.076 0.015 0.165 0.015 0.255 0 0.33-0.074 0.642-0.207 0.921l0.006-0.013-0.185-2.161z"></path>
<path fill="#000" style="fill: var(--color4, #000)" opacity="0.87" d="M33.935 31.35c-0.001 0-0.002 0-0.004 0-0.154 0-0.279-0.125-0.279-0.279 0-0.041 0.009-0.081 0.025-0.116l-0.001 0.002c0.148-0.337 0.203-0.678 0.161-1.015-0.037-0.295-0.148-0.591-0.33-0.886-0.026-0.042-0.042-0.093-0.042-0.147 0-0.101 0.053-0.189 0.133-0.237l0.001-0.001c0.042-0.026 0.093-0.042 0.148-0.042 0.101 0 0.189 0.052 0.24 0.132l0.001 0.001c0.228 0.363 0.364 0.737 0.411 1.114 0.054 0.437-0.015 0.878-0.207 1.308-0.045 0.099-0.144 0.167-0.258 0.167-0 0-0 0-0 0v0z"></path>
<path fill="#fff" style="fill: var(--color5, #fff)" d="M15.758 29.022c-0.154 0.415-0.244 0.894-0.244 1.395 0 0.362 0.047 0.712 0.134 1.046l-0.006-0.029 0.116-2.412z"></path>
<path fill="#000" style="fill: var(--color4, #000)" opacity="0.87" d="M15.639 31.713c-0 0-0 0-0 0-0.131 0-0.242-0.090-0.274-0.211l-0-0.002c-0.085-0.325-0.134-0.698-0.134-1.083 0-0.534 0.094-1.045 0.267-1.519l-0.010 0.031c0.040-0.111 0.145-0.189 0.268-0.189 0.033 0 0.064 0.006 0.094 0.016l-0.002-0.001c0.148 0.050 0.226 0.21 0.176 0.357-0.143 0.389-0.226 0.838-0.226 1.307 0 0.336 0.043 0.662 0.123 0.972l-0.006-0.027c0.005 0.020 0.008 0.042 0.008 0.066 0 0.132-0.091 0.242-0.213 0.272l-0.002 0c-0.020 0.006-0.043 0.010-0.066 0.010-0 0-0.001 0-0.001 0h0z"></path>
<path fill="#fff" style="fill: var(--color5, #fff)" d="M13.91 28.911c-0.187 0.284-0.319 0.621-0.37 0.984l-0.002 0.013c-0.057 0.455 0.046 0.849 0.187 1.163l0.185-2.161z"></path>
<path fill="#000" style="fill: var(--color4, #000)" opacity="0.87" d="M13.723 31.35c-0.114-0-0.213-0.068-0.258-0.166l-0.001-0.002c-0.141-0.299-0.224-0.65-0.224-1.020 0-0.102 0.006-0.202 0.018-0.3l-0.001 0.012c0.047-0.377 0.185-0.751 0.411-1.114 0.051-0.080 0.14-0.133 0.241-0.133 0.055 0 0.106 0.016 0.15 0.042l-0.001-0.001c0.081 0.049 0.135 0.138 0.135 0.238 0 0.055-0.016 0.106-0.043 0.149l0.001-0.001c-0.182 0.292-0.293 0.591-0.33 0.886-0.041 0.336 0.012 0.677 0.164 1.013 0.015 0.034 0.025 0.073 0.025 0.114 0 0.154-0.125 0.279-0.279 0.279-0.002 0-0.003 0-0.005-0h0zM10.283 28.060h-9.982c-0.166 0-0.302-0.108-0.302-0.239 0-0.132 0.135-0.24 0.302-0.24h9.982c0.166 0 0.302 0.108 0.302 0.24 0 0.13-0.135 0.239-0.302 0.239zM46.626 28.111h-9.383c0 0 0 0 0 0-0.156 0-0.282-0.126-0.283-0.282v-0c0.002-0.155 0.128-0.279 0.283-0.279 0 0 0 0 0 0h9.385c0 0 0 0 0 0 0.155 0 0.281 0.125 0.283 0.279v0c0 0 0 0 0 0 0 0.156-0.126 0.282-0.282 0.282-0 0-0.001 0-0.001 0h0zM26.713 22.946c-0.204 0.526-0.676 1.093-1.274 1.179-0.554 0.078-1.065-0.217-1.431-0.672-0.036 0.096-0.079 0.197-0.135 0.295-0.092 0.164-0.587 0.969-1.412 0.969h-0.022c-0.785-0.014-1.466-0.722-1.585-1.649-0.001-0.011-0.002-0.023-0.002-0.035 0-0.144 0.108-0.262 0.247-0.279l0.001-0c0.011-0.001 0.023-0.002 0.036-0.002 0.143 0 0.261 0.106 0.28 0.243l0 0.002c0.091 0.716 0.596 1.152 1.033 1.159h0.011c0.519 0 0.879-0.61 0.918-0.681 0.196-0.348 0.191-0.704 0.155-0.939-0.012-0.043-0.025-0.086-0.034-0.129-0.545 0.062-1.015-0.127-1.103-0.473-0.098-0.393 0.34-0.838 0.978-0.996 0.64-0.158 1.238 0.033 1.337 0.427 0.082 0.324-0.199 0.683-0.658 0.887 0.014 0.052 0.026 0.114 0.037 0.181 0.23 0.756 0.817 1.198 1.27 1.135 0.352-0.049 0.682-0.453 0.825-0.823 0.122-0.314 0.105-0.61 0.069-0.802-0.003-0.014-0.004-0.031-0.004-0.048 0-0.139 0.1-0.254 0.231-0.278l0.002-0c0.015-0.003 0.033-0.005 0.051-0.005 0.138 0 0.253 0.098 0.279 0.228l0 0.002c0.048 0.265 0.070 0.668-0.098 1.104zM53.916 22.878c-0.485 0-0.726-0.133-0.726-0.4v-10.988h-3.487c-0.122 0-0.212-0.042-0.272-0.127-0.062-0.086-0.091-0.225-0.091-0.418v-0.292c0-0.193 0.030-0.332 0.091-0.418 0.060-0.085 0.15-0.127 0.271-0.127h8.517c0.134 0 0.225 0.042 0.273 0.127 0.062 0.086 0.091 0.225 0.091 0.418v0.292c0 0.193-0.031 0.332-0.091 0.418-0.049 0.085-0.139 0.127-0.272 0.127h-3.433v10.988c0 0.267-0.242 0.4-0.726 0.4h-0.145zM61.268 22.841c-0.193 0-0.332-0.042-0.418-0.127-0.084-0.085-0.127-0.224-0.127-0.418v-11.643c0-0.193 0.043-0.332 0.128-0.418 0.084-0.085 0.224-0.127 0.417-0.127h6.338c0.133 0 0.223 0.042 0.271 0.127 0.062 0.086 0.091 0.225 0.091 0.418v0.292c0 0.193-0.030 0.332-0.090 0.418-0.049 0.085-0.14 0.127-0.273 0.127h-5.284v4.148h4.738c0.134 0 0.225 0.043 0.273 0.128 0.062 0.085 0.091 0.224 0.091 0.418v0.29c0 0.194-0.031 0.334-0.091 0.418-0.049 0.085-0.139 0.128-0.272 0.128h-4.74v4.438h5.302c0.133 0 0.224 0.043 0.272 0.128 0.062 0.085 0.091 0.224 0.091 0.418v0.29c0 0.194-0.030 0.334-0.091 0.418-0.048 0.085-0.139 0.127-0.271 0.127h-6.357zM73.287 22.951c-0.726 0-1.398-0.086-2.016-0.256-0.617-0.17-1.083-0.375-1.398-0.618-0.23-0.17-0.345-0.321-0.345-0.455 0-0.145 0.079-0.345 0.236-0.601 0.169-0.255 0.302-0.382 0.399-0.382 0.049 0 0.176 0.062 0.382 0.182 0.375 0.206 0.775 0.382 1.199 0.527 0.436 0.146 0.95 0.219 1.543 0.219 0.702 0 1.271-0.194 1.707-0.582 0.448-0.4 0.672-0.923 0.672-1.564 0-0.449-0.122-0.818-0.363-1.11-0.238-0.297-0.535-0.537-0.875-0.702l-0.015-0.007c-0.395-0.209-0.886-0.43-1.391-0.623l-0.099-0.033c-0.666-0.256-1.216-0.512-1.746-0.801l0.076 0.038c-0.433-0.253-0.788-0.596-1.046-1.007l-0.007-0.012c-0.29-0.462-0.436-1.061-0.436-1.801 0-0.656 0.162-1.238 0.49-1.748 0.352-0.516 0.832-0.92 1.394-1.173l0.021-0.008c0.618-0.292 1.327-0.437 2.126-0.437 0.411 0 0.871 0.062 1.38 0.182 0.51 0.11 0.902 0.261 1.182 0.455 0.241 0.145 0.363 0.303 0.363 0.473 0 0.133-0.079 0.327-0.236 0.582-0.145 0.255-0.261 0.382-0.345 0.382-0.102-0.012-0.195-0.044-0.276-0.093l0.003 0.002c-0.092-0.050-0.164-0.092-0.233-0.136l0.015 0.009c-0.547-0.297-1.197-0.472-1.887-0.474h-0.001c-0.702 0-1.271 0.182-1.707 0.546-0.425 0.363-0.636 0.866-0.636 1.51 0 0.412 0.103 0.746 0.309 1.001 0.218 0.255 0.46 0.448 0.726 0.582 0.279 0.121 0.757 0.315 1.435 0.582 0.726 0.278 1.319 0.551 1.78 0.818 0.46 0.255 0.847 0.63 1.162 1.127 0.327 0.485 0.49 1.11 0.49 1.874 0 1.090-0.363 1.952-1.089 2.582-0.726 0.631-1.707 0.948-2.942 0.948zM82.875 22.878c-0.484 0-0.726-0.133-0.726-0.4v-10.988h-3.487c-0.121 0-0.212-0.042-0.271-0.127-0.062-0.086-0.092-0.225-0.092-0.418v-0.292c0-0.193 0.031-0.332 0.091-0.418 0.062-0.085 0.151-0.127 0.272-0.127h8.517c0.133 0 0.224 0.042 0.273 0.127 0.060 0.086 0.090 0.225 0.090 0.418v0.292c0 0.193-0.030 0.332-0.090 0.418-0.049 0.085-0.14 0.127-0.273 0.127h-3.431v10.988c0 0.267-0.242 0.4-0.726 0.4h-0.146zM92.842 22.878c-0.484 0-0.726-0.133-0.726-0.4v-10.988h-3.488c-0.121 0-0.212-0.042-0.272-0.127-0.062-0.086-0.091-0.225-0.091-0.418v-0.292c0-0.193 0.031-0.332 0.091-0.418 0.060-0.085 0.151-0.127 0.272-0.127h8.517c0.133 0 0.224 0.042 0.272 0.127 0.062 0.086 0.091 0.225 0.091 0.418v0.292c0 0.193-0.031 0.332-0.091 0.418-0.048 0.085-0.139 0.127-0.272 0.127h-3.433v10.988c0 0.267-0.241 0.4-0.726 0.4h-0.145zM98.14 22.878c-0.521 0-0.78-0.103-0.78-0.309 0.006-0.093 0.025-0.18 0.056-0.261l-0.002 0.006 4.304-11.952c0.073-0.194 0.315-0.292 0.726-0.292h0.527c0.436 0 0.677 0.097 0.726 0.292l4.304 11.97c0.037 0.085 0.054 0.164 0.054 0.236 0 0.206-0.26 0.309-0.78 0.309h-0.145c-0.423 0-0.666-0.097-0.726-0.29l-1.071-2.985h-5.34l-1.034 2.985c-0.062 0.193-0.304 0.29-0.726 0.29h-0.092zM104.842 18.22l-1.908-5.422c-0.081-0.284-0.157-0.64-0.212-1.004l-0.006-0.051h-0.037c-0.096 0.485-0.187 0.837-0.271 1.055l-1.908 5.422h4.341zM112.71 22.95c-0.726 0-1.398-0.085-2.016-0.255s-1.083-0.375-1.398-0.618c-0.23-0.17-0.345-0.321-0.345-0.455 0-0.145 0.078-0.345 0.235-0.601 0.17-0.255 0.303-0.382 0.4-0.382 0.049 0 0.175 0.062 0.382 0.182 0.375 0.206 0.775 0.382 1.199 0.527 0.436 0.146 0.95 0.219 1.543 0.219 0.702 0 1.271-0.194 1.707-0.582 0.448-0.4 0.672-0.923 0.672-1.564 0-0.449-0.122-0.818-0.364-1.11-0.238-0.297-0.534-0.536-0.874-0.702l-0.015-0.007c-0.395-0.209-0.886-0.43-1.391-0.623l-0.098-0.033c-0.667-0.256-1.217-0.512-1.748-0.801l0.076 0.038c-0.433-0.253-0.788-0.596-1.046-1.007l-0.007-0.012c-0.29-0.462-0.436-1.061-0.436-1.801 0-0.656 0.164-1.238 0.491-1.748 0.352-0.516 0.832-0.92 1.394-1.173l0.021-0.008c0.618-0.292 1.327-0.437 2.126-0.437 0.411 0 0.871 0.062 1.38 0.182 0.508 0.11 0.902 0.261 1.182 0.455 0.241 0.145 0.362 0.303 0.362 0.473 0 0.133-0.079 0.327-0.235 0.582-0.146 0.255-0.261 0.382-0.345 0.382-0.102-0.012-0.195-0.044-0.276-0.093l0.003 0.002c-0.093-0.050-0.164-0.092-0.234-0.136l0.016 0.009c-0.547-0.297-1.197-0.472-1.889-0.474h-0c-0.702 0-1.27 0.182-1.707 0.546-0.423 0.363-0.635 0.866-0.635 1.51 0 0.412 0.103 0.746 0.308 1.001 0.219 0.255 0.462 0.448 0.727 0.582 0.278 0.121 0.757 0.315 1.435 0.582 0.726 0.278 1.319 0.551 1.78 0.818 0.459 0.255 0.847 0.63 1.162 1.127 0.327 0.485 0.49 1.11 0.49 1.874 0 1.090-0.363 1.952-1.089 2.582-0.726 0.631-1.707 0.948-2.942 0.948zM119.846 22.878c-0.484 0-0.726-0.133-0.726-0.4v-12.007c0-0.266 0.242-0.4 0.726-0.4h0.145c0.485 0 0.726 0.134 0.726 0.4v5.567h0.074l4.466-5.711c0.133-0.171 0.46-0.256 0.981-0.256h0.181c0.207 0 0.364 0.025 0.473 0.074 0.11 0.036 0.164 0.090 0.164 0.162 0 0.11-0.060 0.231-0.182 0.364l-4.539 5.676 5.502 5.985c0.11 0.121 0.164 0.218 0.164 0.29 0 0.097-0.060 0.164-0.181 0.201-0.122 0.037-0.327 0.054-0.618 0.054h-0.218c-0.267 0-0.479-0.012-0.636-0.037-0.146-0.023-0.271-0.095-0.362-0.199l-0.001-0.001-5.194-5.858h-0.071v5.695c0 0.267-0.242 0.4-0.726 0.4h-0.146z"></path>
</symbol>
<symbol id="icon-photo-cover" viewBox="0 0 32 32">
<path fill="#fff" style="fill: var(--color5, #fff)" d="M32 16c0 8.837-7.163 16-16 16s-16-7.163-16-16c0-8.837 7.163-16 16-16s16 7.163 16 16z"></path>
<path fill="#d0cfcf" style="fill: var(--color1, #d0cfcf)" d="M15.978 32c-8.833 0.001-16.012-7.204-15.978-16.032 0.036-8.846 7.188-15.984 16.002-15.968 8.848 0.016 15.972 7.128 15.998 15.971 0.026 8.854-7.146 16.029-16.022 16.029zM5.14 26.311c5.899 6.293 15.962 6.176 21.701 0.005-0.121-0.14-0.236-0.29-0.368-0.423-0.598-0.601-1.305-1.052-2.070-1.393-0.999-0.445-2.028-0.823-3.037-1.246-0.478-0.201-0.956-0.412-1.405-0.669-0.513-0.292-0.845-0.731-0.86-1.358-0.014-0.609-0.032-1.139-0.057-1.667l0.006 0.148c-0.002-0.024-0.002-0.051-0.002-0.079 0-0.303 0.106-0.581 0.283-0.799l-0.002 0.002c0.779-1.008 1.184-2.153 1.192-3.43 0.001-0.201 0.085-0.322 0.236-0.442 0.337-0.267 0.637-0.582 0.727-1.018 0.086-0.391 0.16-0.875 0.207-1.368l0.004-0.052c0.037-0.387-0.006-0.766-0.498-0.806 0.069-0.585 0.16-1.126 0.192-1.669 0.064-1.109-0.056-2.193-0.614-3.184-0.481-0.853-1.207-1.321-2.199-1.359-0.132-0.005-0.267-0.046-0.392-0.089-1.257-0.432-2.556-0.564-3.85-0.306-2.519 0.502-4.027 2.668-3.724 5.246 0.053 0.445 0.137 0.886 0.212 1.364-0.346 0.018-0.549 0.217-0.542 0.546 0.018 0.978 0.036 1.968 0.902 2.658 0.217 0.173 0.272 0.39 0.294 0.645 0.031 0.366 0.073 0.733 0.132 1.096 0.137 0.852 0.634 1.533 1.079 2.24 0.111 0.175 0.2 0.396 0.208 0.599 0.022 0.56 0 1.123-0.012 1.684-0.012 0.563-0.271 0.997-0.73 1.309-0.215 0.145-0.434 0.293-0.672 0.393-0.283 0.135-0.85 0.364-1.423 0.582l-0.294 0.098c-1.193 0.449-2.374 0.922-3.435 1.647-0.444 0.304-0.855 0.642-1.186 1.095z"></path>
</symbol>
<symbol id="icon-success-image" viewBox="0 0 36 32">
<path fill="#ebebeb" style="fill: var(--color6, #ebebeb)" d="M35.523 29.555h-2.852v0.021h2.852v-0.021zM25.305 29.787h-0.748v0.021h0.748v-0.021zM32.585 28.758h-1.652v0.021h1.652v-0.021zM5.022 28.902h-3.719v0.021h3.719v-0.021zM6.334 28.902h-0.545v0.021h0.545v-0.021zM16.172 29.264h-8.066v0.021h8.066v-0.021z"></path>
<path fill="#e5f7ff" style="fill: var(--color7, #e5f7ff)" d="M17.226 2.784c-1.252 1.385-1.872 3.271-1.766 5.132s0.795 3.642 1.633 5.308c0.734 1.459 1.612 3.114 1.011 4.633-0.336 0.849-1.101 1.477-1.948 1.827s-1.774 0.451-2.69 0.496c-1.56 0.078-3.143 0.007-4.661 0.371s-3.013 1.265-3.6 2.706c-0.691 1.699 0.094 3.731 1.478 4.937s3.243 1.724 5.066 1.981c0.929 0.137 2.001 0.215 3.092 0.215 1.629 0 3.218-0.175 4.748-0.506l-0.147 0.027c2.026-0.428 4.019-1.156 5.672-2.398s2.942-3.040 3.296-5.072c0.353-2.032-0.332-4.279-1.949-5.567-0.672-0.536-1.483-0.902-2.073-1.527s-0.889-1.666-0.342-2.328c0.362-0.437 0.971-0.571 1.536-0.639 2.778-0.33 5.856 0.24 8.18-1.313 1.33-0.889 2.191-2.405 2.381-3.99s-0.154-3.299-1.156-4.544c-2.732-3.389-14.416-3.45-17.761 0.25z"></path>
<path fill="#e5f7ff" style="fill: var(--color7, #e5f7ff)" d="M18.312 32c9.22 0 16.694-0.435 16.694-0.971s-7.474-0.971-16.694-0.971c-9.22 0-16.694 0.435-16.694 0.971s7.474 0.971 16.694 0.971z"></path>
<path fill="#00bdd3" style="fill: var(--color2, #00bdd3)" d="M16.94 17.423l0.215-1.237 0.423 0.123-0.638 1.115zM17.082 17.818l1.211-0.348-0.168-0.406-1.043 0.754zM17.298 17.354l0.69-1.299 0.464 0.322-1.154 0.977zM5.904 19.302h-0.545c-0 0-0 0-0 0-0.024 0-0.043-0.019-0.043-0.043 0-0 0-0 0-0v0c0-0.024 0.019-0.043 0.043-0.043h0.545c0.024 0 0.043 0.019 0.043 0.043 0 0 0 0 0 0 0 0.024-0.019 0.043-0.043 0.043-0 0-0 0-0 0h0zM4.996 19.302h-2.732c-0 0-0 0-0 0-0.024 0-0.043-0.019-0.043-0.043 0-0 0-0 0-0v0c0-0.024 0.019-0.043 0.043-0.043h2.731c0.024 0 0.043 0.019 0.043 0.043 0 0 0 0 0 0.001 0 0.023-0.019 0.042-0.042 0.042v0zM14.683 24.263c-0 0-0 0-0 0-0.011 0-0.021-0.004-0.029-0.011l0 0c-0.009-0.008-0.014-0.019-0.014-0.032 0-0.011 0.004-0.022 0.011-0.029l-0 0 0.255-0.276c0.008-0.008 0.019-0.014 0.032-0.014 0.011 0 0.021 0.004 0.029 0.011l-0-0c0.009 0.008 0.014 0.019 0.014 0.032 0 0.011-0.004 0.021-0.011 0.029l0-0-0.255 0.276c-0.008 0.008-0.019 0.014-0.031 0.014-0 0-0.001 0-0.001 0h0zM12.348 26.46c-0.017-0-0.031-0.009-0.039-0.023l-0-0c-0.003-0.006-0.005-0.012-0.005-0.019 0-0.017 0.009-0.031 0.023-0.038l0-0c0.798-0.402 2.062-1.906 2.075-1.921 0.008-0.009 0.019-0.014 0.032-0.014 0.024 0 0.043 0.019 0.043 0.043 0 0.010-0.004 0.019-0.009 0.027l0-0c-0.053 0.063-1.289 1.532-2.103 1.943-0.005 0.003-0.011 0.004-0.018 0.004-0 0-0 0-0.001 0h0z"></path>
<path fill="#f6b69e" style="fill: var(--color8, #f6b69e)" d="M18.544 25.99l0.615-0.507-1.548-1.463-0.66 0.562 1.594 1.408z"></path>
<path fill="#00bdd3" style="fill: var(--color2, #00bdd3)" d="M19.656 25.289c-0.041-0.026-0.126-0.014-0.213 0.010-0.041 0.012-0.084 0.026-0.122 0.040-0.030 0.011-0.058 0.022-0.081 0.032-0.034 0.015-0.059 0.026-0.068 0.030-0.008 0.002-0.013 0.009-0.014 0.018-0.001 0.003 0.001 0.006 0.003 0.009 0.003 0.004 0.007 0.008 0.012 0.009l0 0c0.087 0.023 0.176 0.038 0.267 0.045 0.044 0.006 0.090 0.003 0.132-0.009 0.003-0.001 0.004-0.001 0.006-0.002 0.024-0.008 0.048-0.018 0.070-0.031 0.025-0.020 0.041-0.051 0.041-0.085 0-0.003-0-0.007-0-0.010l0 0c-0.001-0.023-0.013-0.043-0.032-0.054l-0-0zM19.648 25.345c0.001 0.003 0.001 0.007 0.001 0.010 0 0.022-0.011 0.042-0.028 0.054l-0 0c-0.016 0.014-0.040 0.022-0.070 0.028s-0.065 0.008-0.105 0.005c-0.060-0.003-0.116-0.011-0.171-0.022l0.008 0.001-0.041-0.008c0.066-0.032 0.142-0.060 0.222-0.078l0.007-0.001c0.035-0.008 0.079-0.016 0.123-0.020l0.005-0c0 0 0.001 0 0.001 0 0.013 0 0.025 0.003 0.035 0.009l-0-0c0.009 0.005 0.015 0.014 0.014 0.022z"></path>
<path fill="#00bdd3" style="fill: var(--color2, #00bdd3)" d="M19.375 24.967c-0.041 0.007-0.076 0.030-0.098 0.062l-0 0c-0.007 0.009-0.012 0.020-0.017 0.032l-0 0.001c-0.052 0.111-0.025 0.278-0.019 0.309 0.001 0.001 0.001 0.003 0.001 0.004v0c0.001 0.007 0.006 0.013 0.013 0.015l0 0c0.003 0.002 0.008 0.003 0.012 0.001 0.003 0 0.005-0.002 0.008-0.004 0.015-0.012 0.030-0.028 0.047-0.048 0.026-0.030 0.050-0.064 0.072-0.1l0.002-0.003c0.053-0.087 0.091-0.184 0.068-0.235-0.009-0.020-0.032-0.043-0.088-0.033zM19.427 25.017c0.015 0.033-0.014 0.11-0.058 0.185-0.028 0.048-0.061 0.094-0.094 0.129-0.007-0.054-0.014-0.157 0.013-0.233 0.005-0.017 0.013-0.033 0.022-0.046 0.015-0.021 0.035-0.037 0.059-0.044l0.012-0.002c0.036-0.006 0.043 0.007 0.045 0.011z"></path>
<path fill="#0e1f3d" style="fill: var(--color9, #0e1f3d)" d="M19.079 25.448l-0.771 0.388c-0.023 0.011-0.039 0.034-0.039 0.061 0 0.007 0.001 0.014 0.003 0.020l-0-0 0.227 0.719c0.025 0.070 0.102 0.107 0.174 0.082 0.004-0.002 0.009-0.003 0.014-0.005 1.322-0.462 1.726-0.79 1.865-0.864 0.393-0.214 0.172-0.491 0.026-0.457-0.659 0.157-0.88 0.117-1.165 0.043-0.152-0.023-0.287-0.009-0.333 0.015z"></path>
<path fill="#000" style="fill: var(--color4, #000)" opacity="0.2" d="M17.611 24.022l0.784 0.692-0.661 0.562-0.784-0.692 0.66-0.562z"></path>
<path fill="#00bdd3" style="fill: var(--color2, #00bdd3)" d="M17.367 25.27l0.986-0.905-0.217-0.38-1.14 0.975 0.371 0.31z"></path>
<path fill="#fff" style="fill: var(--color5, #fff)" opacity="0.5" d="M17.367 25.27l0.986-0.905-0.217-0.38-1.14 0.975 0.371 0.31z"></path>
<path fill="#00bdd3" style="fill: var(--color2, #00bdd3)" d="M17.981 24.118l-0.132 0.113-0.197 0.169-0.118 0.1-0.344 0.294-0.066 0.056s-1.404-0.788-2.186-1.461c-0.536-0.461-0.584-0.633-0.64-0.59-0.755 0.572-2.99 2.549-4.257 3.578-0.041 0.004-0.082 0.009-0.124 0.011-0.677 0.050-1.209-0.025-1.622-0.182-0.004-0.547 0.466-1.825 0.505-1.948 0 0 1.869-1.85 4.897-3.414 0.030-0.015 0.061-0.027 0.091-0.040 0.040-0.017 0.078-0.033 0.119-0.048 0.158-0.060 0.313-0.097 0.464-0.105 0.135-0.007 0.267 0.017 0.393 0.062 0.082 0.029 0.152 0.060 0.218 0.096l-0.008-0.004c0.060 0.030 0.119 0.065 0.176 0.101 0.094 0.059 0.184 0.125 0.269 0.19 0.193 0.148 1.656 2.025 2.443 2.891v0.001c0.041 0.049 0.081 0.092 0.118 0.13z"></path>
<path fill="#000" style="fill: var(--color4, #000)" opacity="0.1" d="M17.981 24.118l-0.132 0.113-0.197 0.169-0.118 0.1-0.344 0.294-0.066 0.056s-1.404-0.788-2.186-1.461c-0.536-0.461-0.584-0.633-0.64-0.59-0.755 0.572-2.99 2.549-4.257 3.578-0.041 0.004-0.082 0.009-0.124 0.011-0.677 0.050-1.209-0.025-1.622-0.182-0.004-0.547 0.466-1.825 0.505-1.948 0 0 1.869-1.85 4.897-3.414 0.030-0.015 0.061-0.027 0.091-0.040 0.040-0.017 0.078-0.033 0.119-0.048 0.158-0.060 0.313-0.097 0.464-0.105 0.135-0.007 0.267 0.017 0.393 0.062 0.082 0.029 0.152 0.060 0.218 0.096l-0.008-0.004c0.060 0.030 0.119 0.065 0.176 0.101 0.094 0.059 0.184 0.125 0.269 0.19 0.193 0.148 1.656 2.025 2.443 2.891v0.001c0.041 0.049 0.081 0.092 0.118 0.13z"></path>
<path fill="#f6b69e" style="fill: var(--color8, #f6b69e)" d="M8.006 16.219c0.118 0.534 0.242 1.314-0.126 1.68 0.484 0.842 1.026 1.57 1.641 2.227l-0.006-0.007c0.807-1.397 0.042-2.26 0.042-2.26-0.604-0.129-0.595-0.371-0.5-0.79l-1.050-0.851z"></path>
<path fill="#00bdd3" style="fill: var(--color2, #00bdd3)" d="M7.507 17.967c0.047-0.148 0.139-0.271 0.26-0.355l0.002-0.001c0.121-0.093 1.374-0.106 1.7 0 0.194 0.062 0.352 0.189 0.453 0.354l0.002 0.004-2.418-0.001z"></path>
<path fill="#f6b69e" style="fill: var(--color8, #f6b69e)" d="M13.29 20.093l0.325-0.148 0.016 0.526s-0.152 0.135-0.318 0.186c-0.159 0.049-0.311-0.097-0.271-0.258 0.034-0.136 0.125-0.247 0.245-0.306l0.003-0.001z"></path>
<path fill="#f6b69e" style="fill: var(--color8, #f6b69e)" d="M14.029 20.095l-0.017 0.193c-0.005 0.061-0.048 0.11-0.106 0.122l-0.001 0-0.277 0.062-0.016-0.526 0.282 0.004c0.001 0 0.001-0 0.002-0 0.074 0 0.133 0.059 0.134 0.133v0.012zM9.174 21.591c0.487 0.239 1.085 0.377 1.671 0.278 0.69-0.116 1.893-0.806 2.417-1.202l-0.177-0.262c-0.261 0.056-2.393 1.134-3.77 0.159-0.257-0.182-1.264-0.93-1.62-0.915-0.578 0.026-0.528 0.628-0.28 0.88 0.292 0.293 1.36 0.867 1.759 1.062z"></path>
<path fill="#000" style="fill: var(--color4, #000)" opacity="0.04000000000000001" d="M14.012 20.288c-0.005 0.060-0.049 0.109-0.106 0.122l-0.001 0-0.276 0.062v0.001s-0.152 0.135-0.317 0.186c-0.015 0.005-0.032 0.008-0.051 0.009h-0l-0.001 0.001c-0.523 0.396-1.725 1.085-2.416 1.201-0.586 0.098-1.184-0.039-1.671-0.279-0.399-0.195-1.469-0.769-1.759-1.062-0.248-0.251-0.298-0.853 0.28-0.88 0.356-0.015 1.364 0.733 1.62 0.915 1.314 0.93 3.313-0.008 3.722-0.145 0.001-0.006 0.002-0.013 0.003-0.019 0.034-0.137 0.125-0.247 0.245-0.307l0.003-0.001 0.321-0.146 0.004-0.001 0.279 0.003c0 0 0.001 0 0.001 0 0.074 0 0.134 0.060 0.134 0.134v0 0.011l-0.016 0.194z"></path>
<path fill="#000" style="fill: var(--color4, #000)" opacity="0.04000000000000001" d="M13.614 19.946l-0.003 0.001v-0.001h0.003z"></path>
<path fill="#00bdd3" style="fill: var(--color2, #00bdd3)" d="M10.979 18.828c0.731 1.604-0.964 2.062-0.188 4.693l-3.685 0.088c0.025-1.41 0.528-1.107-0.135-3.757-0.056-0.225-0.15-0.869 0.090-1.455 0.094-0.228 0.26-0.422 0.478-0.539 0.272-0.147 1.471-0.032 2.017 0.004 0.592-0.082 1.314 0.766 1.422 0.966z"></path>
<path fill="#fff" style="fill: var(--color5, #fff)" opacity="0.5" d="M10.979 18.828c0.731 1.604-0.964 2.062-0.188 4.693l-3.685 0.088c0.025-1.41 0.528-1.107-0.135-3.757-0.056-0.225-0.15-0.869 0.090-1.455 0.094-0.228 0.26-0.422 0.478-0.539 0.272-0.147 1.471-0.032 2.017 0.004 0.592-0.082 1.314 0.766 1.422 0.966z"></path>
<path fill="#0e1f3d" style="fill: var(--color9, #0e1f3d)" d="M10.275 15.646c-0.010 0.070 0.018 0.128 0.062 0.134s0.089-0.043 0.098-0.111c0.010-0.068-0.018-0.128-0.062-0.134-0.044-0.005-0.089 0.044-0.098 0.111z"></path>
<path fill="#0e1f3d" style="fill: var(--color9, #0e1f3d)" d="M10.353 15.537l0.169-0.023c0-0.001-0.102 0.114-0.169 0.023z"></path>
<path fill="#a02724" style="fill: var(--color10, #a02724)" d="M10.286 15.738s0.072 0.307 0.179 0.464c-0.102 0.070-0.248 0.010-0.248 0.010l0.069-0.474z"></path>
<path fill="#0e1f3d" style="fill: var(--color9, #0e1f3d)" d="M10.519 15.174c0.013-0.005 0.022-0.017 0.025-0.031l0-0c0-0.002 0-0.004 0-0.006 0-0.020-0.015-0.037-0.034-0.040l-0-0c-0.021-0.004-0.044-0.006-0.069-0.006-0.11 0-0.209 0.044-0.281 0.116l0-0c-0.008 0.007-0.013 0.018-0.013 0.030 0 0.010 0.004 0.020 0.010 0.027l-0-0c0.015 0.016 0.040 0.017 0.057 0.003 0.002-0.002 0.004-0.004 0.005-0.006l0-0c0.057-0.055 0.135-0.088 0.221-0.088 0.020 0 0.040 0.002 0.059 0.005l-0.002-0c0.007 0.001 0.015 0 0.021-0.003z"></path>
<path fill="#f6b69e" style="fill: var(--color8, #f6b69e)" d="M8.045 15.091c-0.070 0.836-0.117 1.188 0.241 1.674 0.539 0.731 1.586 0.635 1.904-0.164 0.288-0.719 0.354-1.964-0.412-2.412-0.546-0.322-1.25-0.143-1.575 0.4-0.088 0.144-0.144 0.315-0.157 0.499l-0 0.004z"></path>
<path fill="#0e1f3d" style="fill: var(--color9, #0e1f3d)" d="M10.209 16.55c-0.063-0.053-0.111-0.122-0.139-0.201l-0.001-0.003c-0.003-0.009 0.003-0.018 0.012-0.021 0.001-0 0.003-0.001 0.004-0.001 0.008 0 0.014 0.005 0.016 0.013l0 0c0.025 0.069 0.066 0.13 0.12 0.179l-0.013 0.034zM7.447 14.004c-0.32 0.432-0.466 0.544-0.070 1.694 0.159 0.462 0.622 1.074 0.846 1.13 0.403 0.101 0.795-0.181 1.098-0.465 0.265-0.249 0.519-0.517 0.68-0.842s0.22-0.714 0.088-1.051c-0.145-0.366-0.655-0.693-1.037-0.773-0.449-0.094-1.339-0.052-1.605 0.307z"></path>
<path fill="#0e1f3d" style="fill: var(--color9, #0e1f3d)" d="M9.957 15.592s0.101 0.172-0.027 0.301l0.003-0.23 0.024-0.071z"></path>
<path fill="#0e1f3d" style="fill: var(--color9, #0e1f3d)" d="M9.956 15.592s0.037 0.264-0.185 0.363l0.12-0.286 0.065-0.077zM8.477 16.73s-0.245 0.111-0.209 0.35l0.178-0.253 0.031-0.097z"></path>
<path fill="#0e1f3d" style="fill: var(--color9, #0e1f3d)" d="M8.487 16.735s-0.186 0.192-0.064 0.402l0.071-0.301-0.008-0.101zM10.292 15.248c0.087-0.089 0.176-0.18 0.239-0.287s0.103-0.234 0.084-0.357c-0.025-0.16-0.146-0.291-0.286-0.371s-0.301-0.116-0.46-0.151c-0.077-0.017-0.164-0.033-0.232 0.008-0.066 0.040-0.095 0.123-0.090 0.199s0.034 0.148 0.062 0.219c0.109 0.279 0.178 0.565 0.231 0.858 0.027 0.148 0.006 0.246 0.153 0.19 0.098-0.039 0.224-0.231 0.299-0.308z"></path>
<path fill="#f6b69e" style="fill: var(--color8, #f6b69e)" d="M9.133 15.66c-0 0.010-0.001 0.022-0.001 0.033 0 0.19 0.073 0.363 0.192 0.493l-0.001-0.001c0.175 0.189 0.397 0.065 0.461-0.17 0.058-0.211 0.036-0.563-0.193-0.665s-0.446 0.073-0.458 0.309zM18.899 26.376l0.665-0.646-1.286-1.611-0.804 0.472 1.426 1.784z"></path>
<path fill="#00bdd3" style="fill: var(--color2, #00bdd3)" d="M20.242 25.532c-0.074-0.026-0.226 0.057-0.34 0.129-0.029 0.018-0.055 0.036-0.078 0.051l-0.002 0.001-0.011 0.009c-0.026 0.018-0.045 0.032-0.052 0.037-0.006 0.003-0.011 0.010-0.011 0.017 0 0.002 0 0.003 0 0.004l-0-0c0.003 0.008 0.010 0.015 0.019 0.015h0c0.079 0.003 0.158 0.001 0.238-0.008 0.018-0.002 0.035-0.003 0.053-0.006 0.060-0.004 0.115-0.024 0.161-0.056l-0.001 0.001c0.018-0.011 0.033-0.023 0.047-0.037l-0 0c0.017-0.020 0.027-0.046 0.027-0.074 0-0.012-0.002-0.024-0.006-0.036l0 0.001c-0.007-0.023-0.023-0.041-0.045-0.049l-0-0zM20.247 25.593c0.003 0.007 0.004 0.016 0.004 0.025 0 0.019-0.007 0.036-0.018 0.049l0-0c-0.022 0.027-0.067 0.050-0.131 0.065-0.052 0.013-0.114 0.021-0.176 0.024l-0.002 0c-0.027 0.001-0.057 0.003-0.087 0.003 0.009-0.008 0.019-0.015 0.029-0.021 0.007-0.005 0.014-0.009 0.021-0.015 0.087-0.061 0.186-0.112 0.293-0.148l0.008-0.002c0.006-0.002 0.012-0.002 0.019-0.002s0.015 0.001 0.022 0.003l-0.001-0c0.009 0.003 0.015 0.010 0.018 0.020z"></path>
<path fill="#00bdd3" style="fill: var(--color2, #00bdd3)" d="M19.873 25.258c-0.040 0.016-0.072 0.047-0.087 0.086l-0 0.001c-0.054 0.132 0.026 0.335 0.040 0.367 0 0.001 0 0.001 0.001 0.001 0 0.002 0 0.003 0.001 0.003 0.003 0.007 0.009 0.012 0.017 0.013h0c0.001 0 0.002 0 0.004 0 0.003 0 0.007-0.001 0.009-0.002l-0 0c0.003-0.001 0.005-0.003 0.007-0.005l0-0c0.001-0.002 0.002-0.002 0.003-0.003 0.012-0.015 0.025-0.035 0.036-0.058 0.064-0.119 0.123-0.318 0.071-0.387-0.015-0.020-0.044-0.039-0.1-0.016zM19.852 25.664c-0.023-0.068-0.065-0.212-0.027-0.301 0.010-0.025 0.028-0.046 0.053-0.059l0.012-0.006c0.037-0.015 0.047-0.002 0.050 0.003 0.037 0.050-0.021 0.253-0.088 0.363z"></path>
<path fill="#000" style="fill: var(--color4, #000)" opacity="0.2" d="M18.209 24.021l0.606 0.773-0.82 0.454-0.616-0.752 0.829-0.475z"></path>
<path fill="#0e1f3d" style="fill: var(--color9, #0e1f3d)" d="M7.073 23.33l-0.085 0.333c-0.013 0.027 0.019 0.052 0.061 0.051l3.795-0.089c0.034-0.002 0.060-0.018 0.062-0.039l-0.095-0.349c0.003-0.022-0.028-0.041-0.064-0.040l-3.614 0.105c-0.002-0-0.004-0-0.007-0-0.023 0-0.042 0.011-0.054 0.028l-0 0z"></path>
<path fill="#00bdd3" style="fill: var(--color2, #00bdd3)" d="M10.45 23.663l-0.1 0.010c-0.020-0.001-0.036-0.006-0.036-0.018l-0.002-0.43c0-0.012 0.016-0.024 0.036-0.027l0.1-0.011c0.020 0.001 0.036 0.006 0.036 0.019l0.002 0.43c-0.001 0.012-0.016 0.024-0.036 0.027zM9.091 23.681l-0.1 0.010c-0.020-0.001-0.035-0.006-0.036-0.018l-0.001-0.43c0-0.012 0.016-0.024 0.036-0.027l0.099-0.011c0.020 0.001 0.036 0.006 0.036 0.019l0.002 0.43c0 0.014-0.016 0.024-0.036 0.027z"></path>
<path fill="#00bdd3" style="fill: var(--color2, #00bdd3)" d="M9.091 23.681l-0.1 0.010c-0.020-0.001-0.035-0.006-0.036-0.018l-0.001-0.43c0-0.012 0.016-0.024 0.036-0.027l0.099-0.011c0.020 0.001 0.036 0.006 0.036 0.019l0.002 0.43c0 0.014-0.016 0.024-0.036 0.027z"></path>
<path fill="#00bdd3" style="fill: var(--color2, #00bdd3)" d="M18.718 24.366l-0.168 0.094-0.001 0.001-0.288 0.162-0.259 0.145-0.001 0.001-0.266 0.149v0.001l-0.102 0.057s-0.023-0.016-0.064-0.046c-0.015-0.011-0.034-0.024-0.054-0.040-0.063-0.047-0.152-0.113-0.254-0.195v-0.001c-0.536-0.421-1.489-1.25-1.772-2.003-0.183 0.218-0.403 0.49-0.654 0.792-1.082 1.301-2.766 3.136-4.788 3.376-0.041 0.006-0.082 0.009-0.124 0.013-0.676 0.058-1.209-0.009-1.624-0.161-1.050-0.382-1.342-1.302-1.27-2.083v-0.003c0.006-0.365 0.078-1.017 0.078-1.017l3.829 0.004c0.54-0.652 1.622-1.674 2.729-2.319 0.026-0.016 0.053-0.032 0.079-0.045 0.033-0.020 0.066-0.037 0.099-0.055 0.36-0.196 0.72-0.348 1.061-0.43 0.056-0.015 0.132-0.030 0.209-0.043l0.016-0.002c0.066-0.011 0.145-0.019 0.225-0.022l0.005-0v0.001c0.524-0.024 0.98 0.171 1.289 0.692l2.071 2.976zM16.652 20.404l-4.231 0.174 0.124-2.681 4.231-0.174-0.124 2.681z"></path>
<path fill="#0e1f3d" style="fill: var(--color9, #0e1f3d)" d="M16.603 20.616l-4.17 0.171c-0.004 0-0.008 0-0.012 0-0.106 0-0.193-0.086-0.193-0.193 0-0.004 0-0.009 0-0.013l-0 0.001 0.123-2.664c0.005-0.118 0.106-0.218 0.224-0.223l4.17-0.171c0.118-0.005 0.21 0.087 0.204 0.205l-0.123 2.664c-0.005 0.118-0.106 0.218-0.224 0.223z"></path>
<path fill="#00bdd3" style="fill: var(--color2, #00bdd3)" d="M16.652 20.404l-4.231 0.174 0.124-2.681 4.231-0.174-0.124 2.681z"></path>
<path fill="#fff" style="fill: var(--color5, #fff)" opacity="0.9" d="M16.652 20.404l-4.231 0.174 0.124-2.681 4.231-0.174-0.124 2.681z"></path>
<path fill="#fff" style="fill: var(--color5, #fff)" opacity="0.1" d="M14.046 17.636l-0.699 3.112 0.278-0.011 0.69-3.112-0.269 0.011zM14.475 17.619l-0.699 3.113 0.552-0.023 0.69-3.112-0.542 0.022z"></path>
<path fill="#00bdd3" style="fill: var(--color2, #00bdd3)" d="M15.278 20.65l1.409-0.040c0.024 0.163-0.046 0.224-0.135 0.226l-1.218 0.031-2.901 0.084-0.023-0.203 2.869-0.099z"></path>
<path fill="#00bdd3" style="fill: var(--color2, #00bdd3)" d="M15.278 20.649l1.409-0.039c0.024 0.163-0.046 0.224-0.135 0.226l-1.218 0.031-3.59 0.11c-0.001 0-0.002 0-0.003 0-0.041 0-0.077-0.024-0.094-0.059l-0-0.001c-0.006-0.013-0.010-0.028-0.010-0.044 0-0.056 0.044-0.102 0.1-0.104h0l3.542-0.12z"></path>
<path fill="#000" style="fill: var(--color4, #000)" opacity="0.2" d="M15.278 20.649l1.409-0.039c0.024 0.163-0.046 0.224-0.135 0.226l-1.218 0.031-3.59 0.11c-0.001 0-0.002 0-0.003 0-0.041 0-0.077-0.024-0.094-0.059l-0-0.001c-0.006-0.013-0.010-0.028-0.010-0.044 0-0.056 0.044-0.102 0.1-0.104h0l3.542-0.12z"></path>
<path fill="#000" style="fill: var(--color4, #000)" opacity="0.2" d="M16.687 20.61l0.009 0.057c0.001 0.006 0.001 0.013 0.001 0.021 0 0.081-0.065 0.147-0.145 0.149h-0l-0.45 0.011-0.836 0.030 0.014-0.228 1.408-0.039zM9.391 18.907s-0.199 0.404 0.375 1.47l0.24 0.435c0.079 0.143 0.606-0.149 0.763-0.418 0 0-1.007-0.602-1.378-1.488z"></path>
<path fill="#f6b69e" style="fill: var(--color8, #f6b69e)" d="M14.261 20.15l0.4-0.117-0.065 0.616s-0.559 0.372-0.753 0.016l0.078-0.199c0.061-0.151 0.184-0.266 0.335-0.315l0.004-0.001z"></path>
<path fill="#f6b69e" style="fill: var(--color8, #f6b69e)" d="M15.122 20.276l-0.050 0.222c-0.015 0.068-0.073 0.119-0.143 0.125l-0.001 0-0.333 0.026 0.065-0.616 0.327 0.051c0.087 0.011 0.149 0.091 0.137 0.177 0 0.005-0.001 0.009-0.002 0.015zM10.928 21.193c0.279 0.377 0.672 0.692 1.134 0.782 0.544 0.106 1.591-0.66 2.082-1.157-0.025-0.209-0.010-0.322-0.22-0.352 0 0-0.54 0.394-1.559 0.631-0.329 0.076-0.548-0.259-0.836-0.747-0.143-0.244-0.606-1.241-0.781-1.463-0.28-0.357-1.078-0.101-0.761 0.757 0.134 0.361 0.714 1.239 0.942 1.548z"></path>
<path fill="#00bdd3" style="fill: var(--color2, #00bdd3)" d="M10.63 18.305c0.566 0.518 0.842 1.434 0.842 1.434l-1.322 0.803s-0.967-1.351-0.795-1.822c0.136-0.365 0.388-0.605 0.72-0.626 0.206-0.012 0.404 0.073 0.555 0.212zM7.597 23.733l-0.1 0.003c-0.020-0.003-0.035-0.009-0.034-0.022l0.036-0.428c0.002-0.013 0.018-0.023 0.038-0.024l0.1-0.003c0.020 0.003 0.035 0.010 0.034 0.022l-0.036 0.429c-0.001 0.012-0.018 0.025-0.038 0.023zM17.47 25.159l1.288-0.641-0.11-0.456-1.469 0.668 0.291 0.43z"></path>
<path fill="#fff" style="fill: var(--color5, #fff)" opacity="0.5" d="M17.47 25.159l1.288-0.641-0.11-0.456-1.469 0.668 0.291 0.43z"></path>
<path fill="#0e1f3d" style="fill: var(--color9, #0e1f3d)" d="M19.512 25.66l-0.889 0.268c-0.031 0.008-0.054 0.037-0.054 0.070 0 0.003 0 0.006 0.001 0.009l-0-0 0.107 0.803c0.012 0.069 0.072 0.121 0.144 0.121 0.009 0 0.017-0.001 0.025-0.002l-0.001 0c0.005-0.001 0.010-0.002 0.015-0.004 1.484-0.246 1.974-0.517 2.134-0.571 0.456-0.153 0.274-0.489 0.112-0.478-0.727 0.045-0.953-0.039-1.242-0.169-0.154-0.054-0.299-0.063-0.352-0.047zM7.564 15.081c-0.267 0.042-0.531-0.162-0.615-0.418s-0.015-0.541 0.122-0.773c0.101-0.171 0.761-0.578 1.006-0.12 0.487 0.911-0.514 1.311-0.514 1.311z"></path>
<path fill="#00bdd3" style="fill: var(--color2, #00bdd3)" d="M16.614 18.642l-2.605 0.111 0.012-0.257 2.604-0.111-0.012 0.257z"></path>
<path fill="#fff" style="fill: var(--color5, #fff)" opacity="0.7" d="M16.614 18.642l-2.605 0.111 0.012-0.257 2.604-0.111-0.012 0.257z"></path>
<path fill="#00bdd3" style="fill: var(--color2, #00bdd3)" d="M16.598 19l-2.605 0.11 0.011-0.257 2.604-0.11-0.011 0.257z"></path>
<path fill="#fff" style="fill: var(--color5, #fff)" opacity="0.7" d="M16.598 19l-2.605 0.11 0.011-0.257 2.604-0.11-0.011 0.257z"></path>
<path fill="#00bdd3" style="fill: var(--color2, #00bdd3)" d="M16.582 19.357l-2.605 0.111 0.012-0.257 2.604-0.111-0.012 0.257z"></path>
<path fill="#fff" style="fill: var(--color5, #fff)" opacity="0.7" d="M16.582 19.357l-2.605 0.111 0.012-0.257 2.604-0.111-0.012 0.257z"></path>
<path fill="#00bdd3" style="fill: var(--color2, #00bdd3)" d="M16.566 19.714l-2.605 0.11 0.012-0.257 2.604-0.11-0.012 0.257z"></path>
<path fill="#fff" style="fill: var(--color5, #fff)" opacity="0.7" d="M16.566 19.714l-2.605 0.11 0.012-0.257 2.604-0.11-0.012 0.257z"></path>
<path fill="#00bdd3" style="fill: var(--color2, #00bdd3)" d="M16.55 20.071l-2.605 0.111 0.011-0.257 2.604-0.111-0.011 0.257z"></path>
<path fill="#fff" style="fill: var(--color5, #fff)" opacity="0.7" d="M16.55 20.071l-2.605 0.111 0.011-0.257 2.604-0.111-0.011 0.257z"></path>
<path fill="#00bdd3" style="fill: var(--color2, #00bdd3)" d="M12.958 18.897l-0.209 0.009 0.004 0.086 0.209-0.009-0.004-0.086z"></path>
<path fill="#fff" style="fill: var(--color5, #fff)" opacity="0.5" d="M12.958 18.897l-0.209 0.009 0.004 0.086 0.209-0.009-0.004-0.086z"></path>
<path fill="#00bdd3" style="fill: var(--color2, #00bdd3)" d="M12.949 19.144l-0.209 0.009 0.004 0.086 0.209-0.009-0.004-0.086z"></path>
<path fill="#fff" style="fill: var(--color5, #fff)" opacity="0.5" d="M12.949 19.144l-0.209 0.009 0.004 0.086 0.209-0.009-0.004-0.086z"></path>
<path fill="#00bdd3" style="fill: var(--color2, #00bdd3)" d="M12.938 19.391l-0.209 0.009 0.004 0.086 0.209-0.009-0.004-0.086z"></path>
<path fill="#fff" style="fill: var(--color5, #fff)" opacity="0.5" d="M12.938 19.391l-0.209 0.009 0.004 0.086 0.209-0.009-0.004-0.086z"></path>
<path fill="#00bdd3" style="fill: var(--color2, #00bdd3)" d="M12.929 19.639l-0.209 0.009 0.004 0.086 0.209-0.009-0.004-0.086z"></path>
<path fill="#fff" style="fill: var(--color5, #fff)" opacity="0.5" d="M12.929 19.639l-0.209 0.009 0.004 0.086 0.209-0.009-0.004-0.086z"></path>
<path fill="#00bdd3" style="fill: var(--color2, #00bdd3)" d="M12.918 19.886l-0.209 0.009 0.004 0.086 0.209-0.009-0.004-0.086z"></path>
<path fill="#fff" style="fill: var(--color5, #fff)" opacity="0.5" d="M12.713 19.982l0.008-0.087 0.208-0.009-0.008 0.086-0.208 0.009z"></path>
<path fill="#00bdd3" style="fill: var(--color2, #00bdd3)" d="M12.908 20.133l-0.209 0.009 0.004 0.086 0.209-0.009-0.004-0.086z"></path>
<path fill="#fff" style="fill: var(--color5, #fff)" opacity="0.5" d="M12.908 20.133l-0.209 0.009 0.004 0.086 0.209-0.009-0.004-0.086z"></path>
<path fill="#00bdd3" style="fill: var(--color2, #00bdd3)" d="M13.175 18.66l-0.432 0.16 0.004-0.113 0.239-0.039-0.237-0.016 0.004-0.113 0.421 0.121zM15.814 18.251l-1.805 0.076 0.009-0.178 1.805-0.076-0.009 0.178z"></path>
<path fill="#fff" style="fill: var(--color5, #fff)" opacity="0.7" d="M15.814 18.251l-1.805 0.076 0.009-0.178 1.805-0.076-0.009 0.178z"></path>
<path fill="#00bdd3" style="fill: var(--color2, #00bdd3)" d="M13.379 18.344l-0.264 0.011 0.107-0.068 0.029 0.027 0.032-0.028 0.096 0.058zM13.211 18.279l-0.107 0.068 0.008-0.157 0.099 0.089zM13.396 18.185l-0.009 0.149-0.097-0.057 0.106-0.093z"></path>
<path fill="#fff" style="fill: var(--color5, #fff)" d="M13.254 18.251l-0.006 0.006 0.001 0.001 0.006-0.006-0.001-0.001z"></path>
<path fill="#fff" style="fill: var(--color5, #fff)" d="M13.249 18.253l-0.001 0.001 0.006 0.006 0.001-0.001-0.006-0.006z"></path>
<path fill="#00bdd3" style="fill: var(--color2, #00bdd3)" d="M13.396 18.171l-0.114 0.103-0.032 0.027-0.029-0.026-0.099-0.089-0.008-0.008 0.281-0.007zM12.959 18.198l-0.209 0.009 0.001 0.026 0.209-0.009-0.001-0.026zM12.959 18.263l-0.209 0.009 0.001 0.026 0.209-0.009-0.001-0.026zM12.959 18.329l-0.209 0.009 0.001 0.026 0.209-0.009-0.001-0.026zM25.089 5.305h-1.254c-0 0-0 0-0 0-0.113 0-0.205-0.092-0.205-0.205v-0c0-0.113 0.092-0.205 0.206-0.205h1.254c0.114 0 0.206 0.092 0.206 0.205s-0.092 0.205-0.205 0.205c-0 0-0 0-0 0h0z"></path>
<path fill="#fff" style="fill: var(--color5, #fff)" opacity="0.7" d="M25.089 5.305h-1.254c-0 0-0 0-0 0-0.113 0-0.205-0.092-0.205-0.205v-0c0-0.113 0.092-0.205 0.206-0.205h1.254c0.114 0 0.206 0.092 0.206 0.205s-0.092 0.205-0.205 0.205c-0 0-0 0-0 0h0z"></path>
<path fill="#00bdd3" style="fill: var(--color2, #00bdd3)" d="M29.691 9.516l-4.81 8.814c-0.041 0.073-0.118 0.122-0.206 0.122-0.041 0-0.080-0.011-0.113-0.029l0.001 0.001-8.184-4.429c-0.073-0.040-0.122-0.117-0.122-0.205 0-0.041 0.011-0.079 0.029-0.113l-0.001 0.001 6.255-11.464c0.041-0.073 0.118-0.122 0.206-0.122 0.041 0 0.080 0.011 0.113 0.029l-0.001-0.001 5.515 2.984 1.317 4.412z"></path>
<path fill="#fff" style="fill: var(--color5, #fff)" opacity="0.2" d="M29.691 9.516l-4.81 8.814c-0.041 0.073-0.118 0.122-0.206 0.122-0.041 0-0.080-0.011-0.113-0.029l0.001 0.001-8.184-4.429c-0.073-0.040-0.122-0.117-0.122-0.205 0-0.041 0.011-0.079 0.029-0.113l-0.001 0.001 6.255-11.464c0.041-0.073 0.118-0.122 0.206-0.122 0.041 0 0.080 0.011 0.113 0.029l-0.001-0.001 5.515 2.984 1.317 4.412z"></path>
<path fill="#00bdd3" style="fill: var(--color2, #00bdd3)" d="M26.992 11.494l-6.112-3.284-0.204 0.377 6.112 3.284 0.204-0.377zM26.157 13.036l-6.112-3.284-0.204 0.377 6.112 3.284 0.204-0.377zM25.322 14.578l-6.112-3.284-0.204 0.377 6.112 3.284 0.204-0.377zM28.38 5.1l-1.45 2.659c-0.018 0.032-0.028 0.071-0.028 0.112 0 0.088 0.049 0.165 0.121 0.205l0.001 0.001 2.661 1.44-1.305-4.417z"></path>
<path fill="#fff" style="fill: var(--color5, #fff)" opacity="0.7" d="M28.38 5.1l-1.45 2.659c-0.018 0.032-0.028 0.071-0.028 0.112 0 0.088 0.049 0.165 0.121 0.205l0.001 0.001 2.661 1.44-1.305-4.417z"></path>
<path fill="#00bdd3" style="fill: var(--color2, #00bdd3)" d="M30.944 9.219l-4.809 8.814c-0.041 0.073-0.118 0.122-0.206 0.122-0.041 0-0.080-0.011-0.113-0.029l0.001 0.001-8.184-4.429c-0.073-0.040-0.122-0.117-0.122-0.205 0-0.041 0.011-0.080 0.029-0.113l-0.001 0.001 6.255-11.464c0.041-0.073 0.118-0.122 0.206-0.122 0.041 0 0.080 0.011 0.113 0.029l-0.001-0.001 5.515 2.984 1.317 4.412z"></path>
<path fill="#fff" style="fill: var(--color5, #fff)" opacity="0.5" d="M30.944 9.219l-4.809 8.814c-0.041 0.073-0.118 0.122-0.206 0.122-0.041 0-0.080-0.011-0.113-0.029l0.001 0.001-8.184-4.429c-0.073-0.040-0.122-0.117-0.122-0.205 0-0.041 0.011-0.080 0.029-0.113l-0.001 0.001 6.255-11.464c0.041-0.073 0.118-0.122 0.206-0.122 0.041 0 0.080 0.011 0.113 0.029l-0.001-0.001 5.515 2.984 1.317 4.412z"></path>
<path fill="#00bdd3" style="fill: var(--color2, #00bdd3)" d="M28.083 11.11l-5.786-3.108c-0.025-0.014-0.056-0.022-0.088-0.022-0.070 0-0.131 0.039-0.163 0.096l-0 0.001-0.028 0.052c-0.014 0.025-0.022 0.055-0.022 0.088 0 0.070 0.039 0.131 0.096 0.162l0.001 0 5.786 3.108c0.025 0.014 0.056 0.022 0.088 0.022 0.070 0 0.131-0.039 0.163-0.096l0-0.001 0.028-0.052c0.014-0.025 0.023-0.056 0.023-0.088 0-0.070-0.039-0.131-0.096-0.162l-0.001-0zM27.248 12.651l-5.786-3.108c-0.025-0.014-0.056-0.022-0.088-0.022-0.070 0-0.131 0.039-0.163 0.095l-0 0.001-0.028 0.052c-0.014 0.025-0.022 0.056-0.022 0.088 0 0.070 0.039 0.131 0.096 0.162l0.001 0 5.786 3.108c0.025 0.014 0.056 0.022 0.088 0.022 0.070 0 0.131-0.039 0.163-0.096l0-0.001 0.028-0.052c0.014-0.025 0.022-0.056 0.022-0.088 0-0.070-0.039-0.131-0.096-0.162l-0.001-0zM26.413 14.193l-5.786-3.108c-0.025-0.014-0.056-0.022-0.088-0.022-0.070 0-0.131 0.039-0.163 0.096l-0 0.001-0.028 0.052c-0.014 0.025-0.022 0.055-0.022 0.088 0 0.070 0.039 0.131 0.096 0.162l0.001 0 5.786 3.108c0.090 0.048 0.202 0.015 0.251-0.075l0.028-0.052c0.014-0.025 0.023-0.056 0.023-0.088 0-0.070-0.039-0.131-0.096-0.162l-0.001-0zM29.635 4.804l-1.451 2.659c-0.018 0.032-0.029 0.071-0.029 0.112 0 0.088 0.049 0.165 0.121 0.205l0.001 0.001 2.661 1.44-1.304-4.417z"></path>
<path fill="#fff" style="fill: var(--color5, #fff)" opacity="0.7" d="M29.635 4.804l-1.451 2.659c-0.018 0.032-0.029 0.071-0.029 0.112 0 0.088 0.049 0.165 0.121 0.205l0.001 0.001 2.661 1.44-1.304-4.417z"></path>
<path fill="#f4e041" style="fill: var(--color3, #f4e041)" d="M29.302 0.763l0.405 1.789c-1.532 0.419-2.908 1.929-3.897 3.357-0.39 0.563-0.721 1.218-0.968 1.91 0 0 3.090-2.784 4.794-2.947l-0.081 2.958s1.767-3.427 5.199-4.681c-0.001-0.001-2.875-2.062-5.452-2.385z"></path>
<path fill="#00bdd3" style="fill: var(--color2, #00bdd3)" d="M8.454 20.313l0.781 8.889h-1.259l-0.84-9.565h0.577c0.387 0 0.708 0.293 0.741 0.677z"></path>
<path fill="#000" style="fill: var(--color4, #000)" opacity="0.2" d="M8.462 20.392l0.774 8.809h-1.259l-0.84-9.565h0.496c0.431 0 0.791 0.328 0.829 0.756z"></path>
<path fill="#00bdd3" style="fill: var(--color2, #00bdd3)" d="M7.636 20.215l0.79 8.987h-7.494l-0.78-8.876c-0.033-0.37 0.261-0.689 0.635-0.689h6.215c0.332 0 0.607 0.251 0.636 0.579z"></path>
<path fill="#fff" style="fill: var(--color5, #fff)" opacity="0.2" d="M7.645 20.313l0.781 8.889h-7.494l-0.77-8.759c-0.038-0.433 0.305-0.806 0.741-0.806h5.999c0.387 0 0.709 0.293 0.742 0.677z"></path>
<path fill="#00bdd3" style="fill: var(--color2, #00bdd3)" d="M20.825 29.201h-19.859l-0.216-2.465h19.064c0.44 0 0.827 0.355 0.865 0.793l0.146 1.672z"></path>
<path fill="#fff" style="fill: var(--color5, #fff)" opacity="0.2" d="M20.825 29.201h-19.859l-0.216-2.465h19.064c0.44 0 0.827 0.355 0.865 0.793l0.146 1.672z"></path>
<path fill="#00bdd3" style="fill: var(--color2, #00bdd3)" d="M21.736 30.145h-21.003c-0.272 0-0.493-0.219-0.493-0.491s0.22-0.491 0.493-0.491h21.003c0.272 0 0.493 0.219 0.493 0.491s-0.221 0.491-0.493 0.491z"></path>
<path fill="#000" style="fill: var(--color4, #000)" opacity="0.2" d="M21.736 30.145h-12.193c-0.272 0-0.493-0.219-0.493-0.491s0.22-0.491 0.493-0.491h12.193c0.272 0 0.493 0.219 0.493 0.491s-0.221 0.491-0.493 0.491z"></path>
<path fill="#263238" style="fill: var(--color11, #263238)" d="M1.008 30.145l0.249 0.844h0.498l0.274-0.844h-1.020z"></path>
<path fill="#fff" style="fill: var(--color5, #fff)" opacity="0.5" d="M1.008 30.145l0.249 0.844h0.498l0.274-0.844h-1.020z"></path>
<path fill="#263238" style="fill: var(--color11, #263238)" d="M8.14 30.145l0.249 0.844h0.498l0.274-0.844h-1.020z"></path>
<path fill="#fff" style="fill: var(--color5, #fff)" opacity="0.5" d="M8.14 30.145l0.249 0.844h0.498l0.274-0.844h-1.020z"></path>
<path fill="#263238" style="fill: var(--color11, #263238)" d="M13.599 30.145l0.249 0.844h0.498l0.274-0.844h-1.020z"></path>
<path fill="#fff" style="fill: var(--color5, #fff)" opacity="0.5" d="M13.599 30.145l0.249 0.844h0.498l0.274-0.844h-1.020z"></path>
<path fill="#263238" style="fill: var(--color11, #263238)" d="M20.73 30.145l0.249 0.844h0.498l0.274-0.844h-1.020z"></path>
<path fill="#fff" style="fill: var(--color5, #fff)" opacity="0.5" d="M20.73 30.145l0.249 0.844h0.498l0.274-0.844h-1.020z"></path>
<path fill="#ea5924" style="fill: var(--color12, #ea5924)" d="M28.848 16.58c0 1.9-1.541 3.44-3.442 3.44s-3.442-1.54-3.442-3.44c0-1.9 1.541-3.44 3.442-3.44s3.442 1.54 3.442 3.44z"></path>
<path fill="#fff" style="fill: var(--color5, #fff)" d="M24.961 17.295l-0.564-0.564c-0.029-0.029-0.069-0.047-0.113-0.047s-0.084 0.018-0.113 0.047l-0 0c-0.029 0.029-0.047 0.069-0.047 0.113s0.018 0.084 0.047 0.113v0l0.675 0.675c0.029 0.029 0.069 0.047 0.114 0.047s0.085-0.018 0.114-0.047v0l1.708-1.705c0.029-0.029 0.047-0.069 0.047-0.113s-0.018-0.084-0.047-0.113v0c-0.029-0.029-0.069-0.047-0.113-0.047s-0.084 0.018-0.113 0.047v0l-1.595 1.594z"></path>
</symbol>
</defs>
</svg>
